<svg width="97" height="82" viewBox="0 0 97 82" fill="none" xmlns="http://www.w3.org/2000/svg">
<path d="M0.160176 0.250413H96.6894V67.4413H60.5899L48.2695 80.8334L36.0093 67.4413H0.160176V0.250413Z" fill="white"/>
<path d="M0.160238 0.250413C0.160238 0.250413 0.160238 0.641058 0.160238 1.43236C0.160238 2.22367 0.160238 3.43567 0.160238 4.93815C0.160238 8.04327 0.160222 12.5808 0.110137 18.4004C0.110137 30.0997 0.0500551 46.9074 -3.0568e-05 67.4813V67.6817H0.210308H36.0595L35.8892 67.6015L48.1394 81.0036L48.3197 81.204L48.5 81.0036L60.8303 67.6115L60.64 67.6917H97V67.4312C97 43.3014 97 20.4938 97 0.240394V0H96.7195L26.9144 0.120193L7.17181 0.180298H1.9632H0.560892H0.120163H0.580914H1.94318H7.20185L26.9945 0.250413L96.6494 0.360596L96.4191 0.130212C96.4191 20.3836 96.4191 43.2013 96.4191 67.3211L96.6795 67.0606H60.4597L60.3896 67.1408L48.0793 80.5429H48.4399L36.1797 67.1508L36.1095 67.0807H35.9994H0.150211L0.350554 67.291C0.350554 46.8172 0.270405 30.0496 0.240356 18.3803C0.240356 12.5407 0.240372 7.98317 0.190286 4.86803C0.190286 3.32549 0.190286 2.14354 0.190286 1.32218C0.190286 0.500826 0.160238 0.250413 0.160238 0.250413Z" fill="#263238"/>
</svg>
