<svg width="269" height="308" viewBox="0 0 269 308" fill="none" xmlns="http://www.w3.org/2000/svg">
<path d="M-3.05563e-05 301.652H268.921V307.88H-3.05563e-05V301.652Z" fill="#E0E0E0"/>
<path d="M266.207 308C266.207 308 266.207 307.89 266.207 307.65C266.207 307.409 266.207 307.029 266.207 306.548C266.207 305.547 266.207 304.055 266.207 302.032V301.942H266.127C250.267 301.822 197.971 301.742 135.962 301.742L39.7203 301.822L10.5634 301.912L2.63334 301.972L10.5634 302.032L39.7203 302.123L135.962 302.213C197.921 302.213 250.217 302.123 266.077 302.002L265.997 301.922C265.997 303.925 265.997 305.437 265.997 306.438C265.997 306.919 265.997 307.279 265.997 307.539C265.997 307.8 266.207 308 266.207 308Z" fill="#263238"/>
<path d="M234.187 302.093C233.799 304.043 233.799 306.05 234.187 308C234.574 306.05 234.574 304.043 234.187 302.093Z" fill="#263238"/>
<path d="M198.922 302.093C198.535 304.043 198.535 306.05 198.922 308C199.309 306.05 199.309 304.043 198.922 302.093Z" fill="#263238"/>
<path d="M163.657 302.093C163.27 304.043 163.27 306.05 163.657 308C164.044 306.05 164.044 304.043 163.657 302.093Z" fill="#263238"/>
<path d="M128.393 302.093C128.005 304.043 128.005 306.05 128.393 308C128.78 306.05 128.78 304.043 128.393 302.093Z" fill="#263238"/>
<path d="M93.1279 302.093C92.7408 304.043 92.7408 306.05 93.1279 308C93.515 306.05 93.515 304.043 93.1279 302.093Z" fill="#263238"/>
<path d="M57.8633 302.093C57.4761 304.043 57.4761 306.05 57.8633 308C58.2504 306.05 58.2504 304.043 57.8633 302.093Z" fill="#263238"/>
<path d="M22.6386 302.093C22.2515 304.043 22.2515 306.05 22.6386 308C23.0257 306.05 23.0257 304.043 22.6386 302.093Z" fill="#263238"/>
<path d="M150.27 0H221.531V301.352H150.27V0Z" fill="#259C5F"/>
<path d="M186.676 15.0391H208.334V56.7719H186.676V15.0391Z" fill="white"/>
<path d="M196.859 56.7819C197.02 56.7819 197.15 47.4301 197.15 35.9055C197.15 24.3809 197.02 15.0391 196.859 15.0391C196.699 15.0391 196.579 24.3809 196.579 35.9055C196.579 47.4301 196.729 56.7819 196.859 56.7819Z" fill="#263238"/>
<path d="M186.676 29.5374C190.277 29.8274 193.89 29.9243 197.5 29.8277C201.114 29.9244 204.73 29.8274 208.334 29.5374C204.73 29.2473 201.114 29.1504 197.5 29.247C193.89 29.1504 190.277 29.2474 186.676 29.5374Z" fill="#263238"/>
<path d="M186.556 44.4664C190.19 44.7561 193.836 44.8531 197.48 44.7567C201.121 44.8532 204.764 44.7563 208.394 44.4664C204.764 44.1764 201.121 44.0795 197.48 44.176C193.836 44.0797 190.19 44.1766 186.556 44.4664Z" fill="#263238"/>
<path d="M186.586 70.1088H208.244V111.842H186.586V70.1088Z" fill="white"/>
<path d="M196.809 111.852C196.969 111.852 197.1 102.51 197.1 90.9853C197.1 79.4607 196.969 70.1188 196.809 70.1188C196.649 70.1188 196.519 79.4607 196.519 90.9853C196.519 102.51 196.649 111.852 196.809 111.852Z" fill="#263238"/>
<path d="M186.586 84.6071C190.19 84.8968 193.806 84.9938 197.42 84.8975C201.031 84.994 204.644 84.8971 208.244 84.6071C204.644 84.3171 201.031 84.2202 197.42 84.3167C193.806 84.2204 190.19 84.3173 186.586 84.6071Z" fill="#263238"/>
<path d="M186.476 99.536C190.106 99.8259 193.749 99.9228 197.39 99.8263C201.034 99.923 204.68 99.826 208.314 99.536C204.68 99.2459 201.034 99.149 197.39 99.2456C193.749 99.1491 190.106 99.246 186.476 99.536Z" fill="#263238"/>
<path d="M186.586 124.698H208.244V166.431H186.586V124.698Z" fill="white"/>
<path d="M196.809 166.431C196.969 166.431 197.1 157.089 197.1 145.564C197.1 134.04 196.969 124.698 196.809 124.698C196.649 124.698 196.519 134.04 196.519 145.564C196.519 157.089 196.649 166.431 196.809 166.431Z" fill="#263238"/>
<path d="M186.586 139.196C190.19 139.486 193.806 139.583 197.42 139.487C201.031 139.583 204.644 139.486 208.244 139.196C204.644 138.906 201.031 138.809 197.42 138.906C193.806 138.81 190.19 138.907 186.586 139.196Z" fill="#263238"/>
<path d="M186.476 154.125C190.106 154.415 193.749 154.512 197.39 154.415C201.034 154.512 204.68 154.415 208.314 154.125C204.68 153.835 201.034 153.738 197.39 153.835C193.749 153.738 190.106 153.835 186.476 154.125Z" fill="#263238"/>
<path d="M186.586 180.859H208.244V222.592H186.586V180.859Z" fill="white"/>
<path d="M196.809 222.602C196.969 222.602 197.1 213.26 197.1 201.735C197.1 190.211 196.969 180.859 196.809 180.859C196.649 180.859 196.519 190.201 196.519 201.735C196.519 213.27 196.649 222.602 196.809 222.602Z" fill="#263238"/>
<path d="M186.586 195.357C190.19 195.647 193.806 195.744 197.42 195.648C201.031 195.744 204.644 195.647 208.244 195.357C204.643 195.08 201.03 194.987 197.42 195.077C193.806 194.987 190.19 195.08 186.586 195.357Z" fill="#263238"/>
<path d="M186.476 210.286C190.106 210.576 193.749 210.673 197.39 210.577C201.034 210.673 204.68 210.576 208.314 210.286C204.68 209.996 201.034 209.899 197.39 209.996C193.749 209.9 190.106 209.996 186.476 210.286Z" fill="#263238"/>
<path d="M119.962 0H171.888V301.352H119.962V0Z" fill="#259C5F"/>
<g opacity="0.3">
<path d="M119.962 0H171.888V301.352H119.962V0Z" fill="black"/>
</g>
<path d="M135.492 15.0391H157.149V56.7719H135.492V15.0391Z" fill="white"/>
<path d="M145.704 56.7819C145.865 56.7819 145.995 47.4301 145.995 35.9055C145.995 24.3809 145.865 15.0391 145.704 15.0391C145.544 15.0391 145.414 24.3809 145.414 35.9055C145.414 47.4301 145.544 56.7819 145.704 56.7819Z" fill="#263238"/>
<path d="M135.492 29.5374C139.092 29.8274 142.705 29.9243 146.315 29.8277C149.929 29.9244 153.546 29.8274 157.149 29.5374C153.546 29.2473 149.929 29.1504 146.315 29.247C142.705 29.1504 139.092 29.2474 135.492 29.5374Z" fill="#263238"/>
<path d="M135.371 44.4664C139.005 44.7561 142.651 44.8531 146.295 44.7567C149.936 44.8532 153.579 44.7563 157.209 44.4664C153.579 44.1764 149.936 44.0795 146.295 44.176C142.651 44.0797 139.005 44.1766 135.371 44.4664Z" fill="#263238"/>
<path d="M135.401 71.6809H157.059V113.414H135.401V71.6809Z" fill="white"/>
<path d="M145.624 113.424C145.785 113.424 145.915 104.072 145.915 92.5473C145.915 81.0227 145.785 71.6809 145.624 71.6809C145.464 71.6809 145.334 81.0227 145.334 92.5473C145.334 104.072 145.464 113.424 145.624 113.424Z" fill="#263238"/>
<path d="M135.401 86.1792C139.005 86.4689 142.621 86.5658 146.235 86.4695C149.846 86.5661 153.459 86.4692 157.059 86.1792C153.459 85.8892 149.846 85.7922 146.235 85.8888C142.621 85.7925 139.005 85.8894 135.401 86.1792Z" fill="#263238"/>
<path d="M135.291 101.108C138.922 101.398 142.565 101.495 146.205 101.398C149.849 101.495 153.495 101.398 157.129 101.108C153.495 100.818 149.849 100.721 146.205 100.818C142.565 100.721 138.922 100.818 135.291 101.108Z" fill="#263238"/>
<path d="M135.401 124.698H157.059V166.431H135.401V124.698Z" fill="white"/>
<path d="M145.624 166.431C145.785 166.431 145.915 157.089 145.915 145.564C145.915 134.04 145.785 124.698 145.624 124.698C145.464 124.698 145.334 134.04 145.334 145.564C145.334 157.089 145.464 166.431 145.624 166.431Z" fill="#263238"/>
<path d="M135.401 139.196C139.005 139.486 142.621 139.583 146.235 139.487C149.846 139.583 153.459 139.486 157.059 139.196C153.459 138.906 149.846 138.809 146.235 138.906C142.621 138.81 139.005 138.907 135.401 139.196Z" fill="#263238"/>
<path d="M135.291 154.125C138.922 154.415 142.565 154.512 146.205 154.415C149.849 154.512 153.495 154.415 157.129 154.125C153.495 153.835 149.849 153.738 146.205 153.835C142.565 153.738 138.922 153.835 135.291 154.125Z" fill="#263238"/>
<path d="M134.52 181.77H156.178V223.503H134.52V181.77Z" fill="white"/>
<path d="M144.743 223.503C144.904 223.503 145.024 214.161 145.024 202.637C145.024 191.112 144.904 181.77 144.743 181.77C144.583 181.77 144.453 191.112 144.453 202.637C144.453 214.161 144.583 223.503 144.743 223.503Z" fill="#263238"/>
<path d="M134.52 196.269C138.12 196.559 141.734 196.656 145.344 196.559C148.958 196.656 152.574 196.559 156.178 196.269C152.574 195.979 148.958 195.882 145.344 195.978C141.734 195.882 138.12 195.979 134.52 196.269Z" fill="#263238"/>
<path d="M134.41 211.198C138.04 211.488 141.683 211.584 145.324 211.488C148.965 211.584 152.608 211.488 156.238 211.198C152.608 210.908 148.965 210.811 145.324 210.907C141.683 210.811 138.04 210.908 134.41 211.198Z" fill="#263238"/>
<path d="M186.586 238.352H208.244V280.085H186.586V238.352Z" fill="white"/>
<path d="M196.809 280.065C196.969 280.065 197.1 270.713 197.1 259.188C197.1 247.664 196.969 238.322 196.809 238.322C196.649 238.322 196.519 247.664 196.519 259.188C196.519 270.713 196.649 280.065 196.809 280.065Z" fill="#263238"/>
<path d="M186.586 252.85C190.19 253.14 193.806 253.237 197.42 253.141C201.031 253.237 204.644 253.14 208.244 252.85C204.644 252.56 201.031 252.463 197.42 252.56C193.806 252.464 190.19 252.56 186.586 252.85Z" fill="#263238"/>
<path d="M186.476 267.779C190.106 268.069 193.749 268.166 197.39 268.069C201.034 268.166 204.68 268.069 208.314 267.779C204.68 267.489 201.034 267.392 197.39 267.489C193.749 267.392 190.106 267.489 186.476 267.779Z" fill="#263238"/>
<path d="M135.401 240.144H157.059V281.877H135.401V240.144Z" fill="white"/>
<path d="M145.624 281.877C145.785 281.877 145.915 272.535 145.915 261.011C145.915 249.486 145.785 240.144 145.624 240.144C145.464 240.144 145.334 249.486 145.334 261.011C145.334 272.535 145.464 281.877 145.624 281.877Z" fill="#263238"/>
<path d="M135.401 254.643C139.005 254.932 142.621 255.029 146.235 254.933C149.846 255.029 153.459 254.933 157.059 254.643C153.459 254.353 149.846 254.256 146.235 254.352C142.621 254.256 139.005 254.353 135.401 254.643Z" fill="#263238"/>
<path d="M135.291 269.571C138.922 269.861 142.565 269.958 146.205 269.862C149.849 269.958 153.495 269.861 157.129 269.571C153.495 269.281 149.849 269.184 146.205 269.281C142.565 269.185 138.922 269.281 135.291 269.571Z" fill="#263238"/>
<path d="M84.497 167.202H59.245L59.245 130.706H84.497L84.497 167.202Z" fill="#E8503A"/>
<g opacity="0.3">
<path d="M84.4971 167.202H59.2451L59.2451 130.706H84.4971L84.4971 167.202Z" fill="black"/>
</g>
<path d="M107.216 167.202H81.9638V130.706H107.216L107.216 167.202Z" fill="#E8503A"/>
<path d="M101.188 159.832C101.188 159.832 101.188 159.712 101.188 159.462C101.188 159.212 101.188 158.801 101.188 158.341C101.188 157.339 101.188 155.867 101.188 154.055C101.188 150.34 101.238 145.124 101.278 139.036V138.886H89.7237L89.5434 139.076V144.893C89.5434 146.786 89.5434 148.608 89.5434 150.37C89.5434 153.875 89.5434 157.079 89.5434 159.852V159.993H89.7237L98.1443 159.923H100.417H100.998C101.128 159.923 101.188 159.923 101.188 159.923H100.968H100.357H98.0542L89.7237 159.852L89.8639 159.983C89.8639 157.209 89.8639 153.975 89.8639 150.501C89.8639 148.738 89.8639 146.916 89.8639 145.024V139.206C90.0241 139.036 89.6436 139.417 89.6836 139.377H101.188L101.018 139.206C101.018 145.214 101.078 150.421 101.098 154.115C101.098 155.937 101.098 157.399 101.148 158.431C101.148 158.911 101.148 159.302 101.148 159.592C101.156 159.673 101.17 159.753 101.188 159.832Z" fill="#263238"/>
<path d="M98.8953 150.561C98.8953 150.561 98.6149 150.561 98.4747 150.851C98.4337 150.95 98.4178 151.057 98.4282 151.164C98.4387 151.27 98.4753 151.373 98.5348 151.462C98.6237 151.567 98.7427 151.644 98.8759 151.68C99.0091 151.717 99.1502 151.712 99.2806 151.666C99.411 151.62 99.5244 151.536 99.6058 151.425C99.6871 151.313 99.7327 151.179 99.7363 151.041C99.725 150.934 99.6882 150.83 99.629 150.74C99.5698 150.649 99.4899 150.574 99.3959 150.521C99.0755 150.35 98.8552 150.521 98.8953 150.521C98.9353 150.521 99.0855 150.521 99.2557 150.691C99.3075 150.727 99.3481 150.776 99.3726 150.834C99.3971 150.892 99.4045 150.956 99.394 151.018C99.3835 151.08 99.3555 151.138 99.3132 151.185C99.271 151.231 99.2163 151.265 99.1556 151.282C98.8452 151.402 98.675 151.121 98.725 150.881C98.7751 150.641 98.9053 150.611 98.8953 150.561Z" fill="#263238"/>
<path d="M132.948 301.582H28.2257L28.2257 160.433H132.948L132.948 301.582Z" fill="#E8503A"/>
<path d="M70.1588 301.582L13.9877 301.652V160.443H70.1588V301.582Z" fill="#E8503A"/>
<g opacity="0.3">
<path d="M70.1588 301.582L13.9877 301.652V160.443H70.1588V301.582Z" fill="black"/>
</g>
<path d="M125.259 256.175H106.104V237.02H125.259L125.259 256.175Z" fill="#EBEBEB"/>
<path d="M116.417 258.097C116.518 258.097 116.598 253.141 116.598 247.083C116.598 241.025 116.518 236.069 116.417 236.069C116.317 236.069 116.237 241.015 116.237 247.083C116.237 253.151 116.317 258.097 116.417 258.097Z" fill="#259C5F"/>
<path d="M128.853 243.438C128.853 243.338 123.286 243.258 116.417 243.258C109.549 243.258 103.972 243.338 103.972 243.438C103.972 243.538 109.539 243.619 116.417 243.619C123.296 243.619 128.853 243.538 128.853 243.438Z" fill="#259C5F"/>
<path d="M97.934 256.175H78.7797V237.02H97.934L97.934 256.175Z" fill="#EBEBEB"/>
<path d="M89.0928 258.097C89.1929 258.097 89.283 253.141 89.283 247.083C89.283 241.025 89.1929 236.069 89.0928 236.069C88.9926 236.069 88.9126 241.015 88.9126 247.083C88.9126 253.151 88.9926 258.097 89.0928 258.097Z" fill="#259C5F"/>
<path d="M101.539 243.438C101.539 243.338 95.9715 243.258 89.1028 243.258C82.2341 243.258 76.657 243.338 76.657 243.438C76.657 243.538 82.2241 243.619 89.1028 243.619C95.9815 243.619 101.539 243.538 101.539 243.438Z" fill="#259C5F"/>
<path d="M125.259 225.916H106.104V206.762H125.259L125.259 225.916Z" fill="#EBEBEB"/>
<path d="M116.417 227.839C116.518 227.839 116.598 222.882 116.598 216.825C116.598 210.767 116.518 205.811 116.417 205.811C116.317 205.811 116.237 210.757 116.237 216.825C116.237 222.892 116.317 227.839 116.417 227.839Z" fill="#259C5F"/>
<path d="M128.853 213.18C128.853 213.08 123.286 213 116.417 213C109.549 213 103.972 213.08 103.972 213.18C103.972 213.28 109.539 213.36 116.417 213.36C123.296 213.36 128.853 213.28 128.853 213.18Z" fill="#259C5F"/>
<path d="M97.934 225.916H78.7797V206.762H97.934L97.934 225.916Z" fill="#EBEBEB"/>
<path d="M89.0928 227.839C89.1929 227.839 89.283 222.882 89.283 216.825C89.283 210.767 89.1929 205.811 89.0928 205.811C88.9926 205.811 88.9126 210.757 88.9126 216.825C88.9126 222.892 88.9926 227.839 89.0928 227.839Z" fill="#259C5F"/>
<path d="M101.539 213.18C101.539 213.08 95.9715 213 89.1028 213C82.2341 213 76.657 213.08 76.657 213.18C76.657 213.28 82.2241 213.36 89.1028 213.36C95.9815 213.36 101.539 213.28 101.539 213.18Z" fill="#259C5F"/>
<path d="M125.259 195.578H106.104V176.424H125.259L125.259 195.578Z" fill="#EBEBEB"/>
<path d="M116.417 197.51C116.518 197.51 116.598 192.554 116.598 186.496C116.598 180.439 116.518 175.482 116.417 175.482C116.317 175.482 116.237 180.429 116.237 186.496C116.237 192.564 116.317 197.51 116.417 197.51Z" fill="#259C5F"/>
<path d="M128.853 182.852C128.853 182.751 123.286 182.671 116.417 182.671C109.549 182.671 103.972 182.751 103.972 182.852C103.972 182.952 109.539 183.032 116.417 183.032C123.296 183.032 128.853 182.942 128.853 182.852Z" fill="#259C5F"/>
<path d="M97.934 195.578H78.7797V176.424H97.934L97.934 195.578Z" fill="#EBEBEB"/>
<path d="M89.0928 197.51C89.1929 197.51 89.283 192.554 89.283 186.496C89.283 180.439 89.1929 175.482 89.0928 175.482C88.9926 175.482 88.9126 180.429 88.9126 186.496C88.9126 192.564 88.9926 197.51 89.0928 197.51Z" fill="#259C5F"/>
<path d="M101.539 182.852C101.539 182.751 95.9715 182.671 89.1028 182.671C82.2341 182.671 76.657 182.751 76.657 182.852C76.657 182.952 82.2241 183.032 89.1028 183.032C95.9815 183.032 101.539 182.942 101.539 182.852Z" fill="#259C5F"/>
<g opacity="0.7">
<path d="M50.9245 195.578H31.7702L31.7702 176.424H50.9245L50.9245 195.578Z" fill="white"/>
</g>
<path d="M41.3423 197.51C41.4425 197.51 41.5226 192.554 41.5226 186.496C41.5226 180.439 41.4425 175.482 41.3423 175.482C41.2422 175.482 41.1621 180.429 41.1621 186.496C41.1621 192.564 41.2422 197.51 41.3423 197.51Z" fill="#263238"/>
<path d="M54.519 182.852C54.519 182.751 48.942 182.671 42.0733 182.671C35.2046 182.671 29.6375 182.751 29.6375 182.852C29.6375 182.952 35.2046 183.032 42.0733 183.032C48.942 183.032 54.519 182.942 54.519 182.852Z" fill="#263238"/>
<g opacity="0.7">
<path d="M50.9245 226.206H31.7702L31.7702 207.052H50.9245L50.9245 226.206Z" fill="white"/>
</g>
<path d="M41.3423 228.139C41.4425 228.139 41.5226 223.183 41.5226 217.125C41.5226 211.067 41.4425 206.111 41.3423 206.111C41.2422 206.111 41.1621 211.057 41.1621 217.125C41.1621 223.193 41.2422 228.139 41.3423 228.139Z" fill="#263238"/>
<path d="M54.519 213.48C54.519 213.38 48.942 213.3 42.0733 213.3C35.2046 213.3 29.6375 213.38 29.6375 213.48C29.6375 213.581 35.2046 213.661 42.0733 213.661C48.942 213.661 54.519 213.581 54.519 213.48Z" fill="#263238"/>
<g opacity="0.7">
<path d="M50.9245 256.845H31.7702L31.7702 237.691L50.9245 237.691L50.9245 256.845Z" fill="white"/>
</g>
<path d="M41.3423 258.758C41.4425 258.758 41.5226 253.811 41.5226 247.744C41.5226 241.676 41.4425 236.73 41.3423 236.73C41.2422 236.73 41.1621 241.686 41.1621 247.744C41.1621 253.801 41.2422 258.758 41.3423 258.758Z" fill="#263238"/>
<path d="M54.519 244.109C54.519 244.009 48.942 243.929 42.0733 243.929C35.2046 243.929 29.6375 244.009 29.6375 244.109C29.6375 244.209 35.2046 244.29 42.0733 244.29C48.942 244.29 54.519 244.209 54.519 244.109Z" fill="#263238"/>
<path d="M111.261 300.951C111.261 300.951 111.261 300.891 111.261 300.781C111.261 300.671 111.261 300.48 111.261 300.27C111.261 299.796 111.261 299.145 111.261 298.318C111.261 296.586 111.261 294.112 111.311 291.029C111.311 284.791 111.311 276.1 111.381 266.137V265.967H91.3557V266.137C91.3557 276.15 91.3557 284.951 91.4158 291.249C91.4158 294.363 91.4158 296.866 91.4158 298.608C91.4158 299.459 91.4158 300.11 91.4158 300.611C91.4158 300.821 91.4158 300.991 91.4158 301.121C91.4158 301.251 91.4158 301.292 91.4158 301.292C91.42 301.235 91.42 301.178 91.4158 301.121C91.4158 300.991 91.4158 300.821 91.4158 300.611C91.4158 300.13 91.4158 299.479 91.4158 298.608C91.4158 296.866 91.4158 294.363 91.4158 291.249C91.4158 284.951 91.4158 276.18 91.4759 266.137L91.3056 266.317H110.93L110.75 266.137C110.75 276.15 110.8 284.791 110.82 291.029C110.82 294.112 110.82 296.586 110.87 298.318C110.87 299.152 110.87 299.803 110.87 300.27C110.87 300.48 110.87 300.651 110.87 300.781C110.87 300.911 111.261 300.951 111.261 300.951Z" fill="#263238"/>
<path d="M100.788 284.22H94.0992V268.21H100.788V284.22Z" fill="#E0E0E0"/>
<path d="M94.0791 284.24H100.808V268.22H94.0791V284.24ZM100.778 284.24H94.1192V268.22H100.738L100.778 284.24Z" fill="#263238"/>
<path d="M108.788 284.22H102.099V268.21H108.788V284.22Z" fill="#E0E0E0"/>
<path d="M102.079 284.24H108.808V268.22H102.079V284.24ZM108.778 284.24H102.119V268.22H108.748L108.778 284.24Z" fill="#263238"/>
<path d="M108.928 285.882C108.928 285.932 109.258 285.932 109.409 286.313C109.453 286.414 109.476 286.523 109.476 286.633C109.476 286.743 109.453 286.853 109.409 286.953C109.345 287.064 109.25 287.153 109.136 287.21C109.022 287.267 108.894 287.289 108.768 287.274C108.644 287.239 108.533 287.17 108.448 287.074C108.363 286.978 108.307 286.86 108.287 286.733C108.269 286.626 108.279 286.515 108.318 286.413C108.357 286.311 108.422 286.221 108.507 286.152C108.828 285.892 109.128 285.952 109.138 285.902C109.148 285.852 108.828 285.662 108.357 285.952C108.219 286.037 108.108 286.159 108.037 286.304C107.967 286.45 107.938 286.612 107.957 286.773C107.956 286.991 108.034 287.202 108.174 287.369C108.315 287.535 108.511 287.647 108.726 287.683C108.941 287.719 109.162 287.677 109.349 287.566C109.536 287.454 109.678 287.28 109.749 287.074C109.81 286.927 109.836 286.768 109.824 286.61C109.812 286.451 109.762 286.298 109.679 286.162C109.628 286.07 109.558 285.99 109.473 285.928C109.389 285.866 109.291 285.823 109.188 285.802C108.998 285.822 108.928 285.852 108.928 285.882Z" fill="#263238"/>
<path d="M129.514 266.137C129.519 266.064 129.519 265.99 129.514 265.917C129.514 265.726 129.514 265.506 129.514 265.246C129.514 264.585 129.514 263.734 129.514 262.693H129.464H118.29L118.22 262.763V266.247H118.29H126.3H128.633H126.28H118.27L118.34 266.317V262.903C118.2 263.053 118.34 262.903 118.27 262.983H129.444V262.933C129.444 263.934 129.444 264.805 129.444 265.456C129.444 265.716 129.444 265.947 129.444 266.137C129.444 266.327 129.514 266.137 129.514 266.137Z" fill="#263238"/>
<path d="M86.039 259.038C86.0433 258.961 86.0433 258.885 86.039 258.808C86.039 258.618 86.039 258.397 86.039 258.137C86.039 257.486 86.039 256.635 86.039 255.594V255.544H85.9889H74.8148C74.8148 255.544 74.8849 255.464 74.7447 255.614V259.118H74.8148H82.8249H85.1579H82.8149H74.8048L74.8749 259.198V255.764L74.8048 255.834H85.9789C85.9789 256.835 85.9789 257.706 85.9789 258.347C85.9789 258.618 85.9789 258.838 85.9789 259.028C85.9789 259.218 86.039 259.038 86.039 259.038Z" fill="#263238"/>
<path d="M79.0701 231.003C79.0701 231.003 79.0701 230.933 79.0701 230.782V230.111C79.0701 229.461 79.0701 228.61 79.0701 227.558H67.896L67.8159 227.628V231.113H67.886H75.8961H78.2291H75.8861H67.876L67.9461 231.183C67.9461 230.642 67.9461 230.071 67.9461 229.501V227.769C67.7959 227.919 67.946 227.769 67.876 227.849H79.0501L79.0001 227.799C79.0001 228.8 79.0001 229.681 79.0001 230.322V231.003C79.0234 231.003 79.0468 231.003 79.0701 231.003Z" fill="#263238"/>
<path d="M119.251 200.864V200.634C119.251 200.444 119.251 200.224 119.251 199.963C119.251 199.312 119.251 198.461 119.251 197.42H108.067L107.997 197.49V200.964H108.067H116.077H118.41H116.067H108.057L108.127 201.045C108.127 200.494 108.127 199.933 108.127 199.352V197.61L108.047 197.68H119.231H119.181C119.181 198.682 119.181 199.553 119.181 200.194V200.874C119.241 200.774 119.251 200.864 119.251 200.864Z" fill="#263238"/>
<path d="M87.4407 168.684C87.4453 168.61 87.4453 168.537 87.4407 168.463C87.4407 168.273 87.4407 168.053 87.4407 167.793C87.4407 167.125 87.4407 166.274 87.4407 165.239H76.2665L76.1964 165.309V168.794H76.2665H84.2767H86.6097H84.2667H76.2565L76.3266 168.864V165.45C76.1864 165.6 76.3266 165.45 76.2565 165.53H87.4307V165.48C87.4307 166.481 87.4307 167.362 87.4307 168.003C87.4307 168.263 87.4307 168.493 87.4307 168.684C87.4307 168.874 87.4407 168.684 87.4407 168.684Z" fill="#263238"/>
<path d="M126.02 204.189C126.024 204.115 126.024 204.042 126.02 203.968V203.297C126.02 202.647 126.02 201.796 126.02 200.754V200.704H125.97H114.795C114.795 200.704 114.865 200.634 114.715 200.784V202.516C114.715 203.097 114.715 203.658 114.715 204.199V204.269H114.785H122.796H125.118H122.775H114.765L114.835 204.339V200.924L114.765 200.995H125.94H125.889C125.889 201.996 125.889 202.867 125.889 203.508C125.889 203.778 125.889 203.998 125.889 204.189C125.933 204.19 125.976 204.19 126.02 204.189Z" fill="#263238"/>
<path d="M74.274 234.377C74.274 234.377 74.274 234.307 74.274 234.156C74.274 234.006 74.274 233.746 74.274 233.486C74.274 232.825 74.274 231.974 74.274 230.932H63.0999L63.0197 231.003V232.735C63.0197 233.305 63.0197 233.866 63.0197 234.417V234.487H63.0898H71.1H73.4229H71.08H63.0698L63.1399 234.557V231.003L63.0698 231.073H74.244L74.1939 231.023C74.1939 232.05 74.1939 232.892 74.1939 233.546C74.1939 233.806 74.1939 234.026 74.1939 234.227C74.1939 234.427 74.274 234.377 74.274 234.377Z" fill="#263238"/>
<path d="M79.0701 172.128C79.0701 172.128 79.0701 172.058 79.0701 171.908V171.237C79.0701 170.576 79.0701 169.725 79.0701 168.684H67.896L67.8159 168.754V172.238H67.886H75.8961H78.2291H75.8861H67.876L67.9461 172.308C67.9461 171.758 67.9461 171.197 67.9461 170.626V168.894L67.876 168.964H79.0501L79.0001 168.914C79.0001 169.949 79.0001 170.79 79.0001 171.437V171.928C79.0601 172.038 79.0701 172.128 79.0701 172.128Z" fill="#263238"/>
<path d="M133.139 269.582C133.143 269.508 133.143 269.435 133.139 269.361C133.139 269.171 133.139 268.951 133.139 268.69C133.139 268.04 133.139 267.188 133.139 266.137H133.089H121.914L121.844 266.207V269.692H121.914H129.925H132.258H129.905H121.894L121.964 269.762V268.08C121.964 267.789 121.964 267.499 121.964 267.209V266.347L121.884 266.428H133.059V266.377C133.059 267.379 133.059 268.26 133.059 268.901C133.059 269.161 133.059 269.391 133.059 269.582H133.139Z" fill="#263238"/>
</svg>
