<svg width="168" height="90" viewBox="0 0 168 90" fill="none" xmlns="http://www.w3.org/2000/svg">
<path d="M98.531 70.6207C98.531 70.6908 99.6726 70.2301 101.796 69.7594C104.795 69.1017 107.887 68.9796 110.929 69.3989C115.445 69.9954 119.706 71.8366 123.236 74.7165C127.565 78.2375 130.619 83.082 131.929 88.5061C131.929 88.5562 131.929 88.6063 131.929 88.6564L132.179 89.6578L132.559 88.7165C134.694 83.5827 138.336 79.2176 143.004 76.1986C146.806 73.7251 151.177 72.2668 155.702 71.9626C158.752 71.7457 161.816 72.0264 164.775 72.7938C166.868 73.3445 167.98 73.7952 168 73.7952C167.753 73.643 167.491 73.5155 167.219 73.4146C166.44 73.0532 165.637 72.7454 164.815 72.4933C161.838 71.6375 158.735 71.2988 155.642 71.4919C151.013 71.74 146.527 73.1858 142.624 75.6879C137.834 78.7665 134.105 83.2406 131.939 88.5061L132.569 88.5662V88.406C131.23 82.8409 128.085 77.8759 123.627 74.2859C119.995 71.3693 115.615 69.5335 110.989 68.9883C107.896 68.6041 104.759 68.7943 101.736 69.5491C100.917 69.75 100.114 70.0077 99.3321 70.3202C99.0554 70.3924 98.7869 70.4931 98.531 70.6207Z" fill="#263238"/>
<path d="M0.000462237 35.08C0.000462237 35.08 0.641375 34.8998 1.81304 34.6494C3.46196 34.3181 5.15531 34.2707 6.82018 34.5092C9.27742 34.847 11.593 35.8591 13.5097 37.4334C15.8614 39.3552 17.5211 41.9924 18.2365 44.9441V45.0242L18.4868 46.0256L18.8674 45.0843C20.0169 42.2838 21.9901 39.8986 24.5254 38.2445C26.5956 36.8884 28.9771 36.082 31.4453 35.9012C33.1256 35.7649 34.8168 35.9036 36.4524 36.3118C37.6041 36.5922 38.225 36.8425 38.245 36.7925C38.265 36.7424 38.1048 36.6923 37.8144 36.5521C37.3963 36.3573 36.9645 36.1933 36.5225 36.0614C34.4758 35.4354 32.3177 35.2599 30.1967 35.5469C28.0757 35.8338 26.0419 36.5765 24.235 37.7238C21.5688 39.4308 19.4921 41.9166 18.2865 44.8439H18.9174V44.7538C18.1647 41.6569 16.4032 38.8983 13.9103 36.9126C11.8918 35.3054 9.46332 34.2959 6.9003 33.9985C5.18691 33.8013 3.45182 33.9235 1.783 34.359C1.33166 34.4757 0.889788 34.6264 0.461126 34.8096C0.140669 34.9799 -0.00955036 35.05 0.000462237 35.08Z" fill="#263238"/>
<path d="M66.916 0C66.916 0 67.5368 0.721028 68.6685 2.00286C70.2563 3.8092 71.69 5.74538 72.9546 7.79111C77.1592 14.5471 79.364 22.3559 79.3136 30.3132C79.3186 30.4066 79.3186 30.5002 79.3136 30.5936H79.9746C80.6212 26.3212 82.0144 22.1959 84.0904 18.4062C86.9289 13.2002 90.9361 8.72334 95.7971 5.32759C96.5398 4.86375 97.2585 4.36238 97.9502 3.82545C97.7358 3.90213 97.5309 4.00292 97.3393 4.12588C96.9488 4.34619 96.3379 4.63661 95.6469 5.12731C93.6207 6.42346 91.7375 7.93068 90.0289 9.62372C84.2888 15.2466 80.5287 22.5806 79.3136 30.5235H79.9746V30.2431C80.0326 22.1651 77.7283 14.2463 73.3451 7.46064C72.0363 5.41565 70.5303 3.5038 68.8487 1.7525C68.2679 1.11158 67.7571 0.68097 67.4367 0.370527C67.2725 0.234376 67.0984 0.110532 66.916 0Z" fill="#263238"/>
</svg>
