<svg width="26" height="26" viewBox="0 0 26 26" fill="none" xmlns="http://www.w3.org/2000/svg">
<path d="M11.7937 3.6473C13.3581 3.64588 14.8878 4.10848 16.1893 4.97659C17.4907 5.8447 18.5055 7.07931 19.1052 8.52424C19.7048 9.96917 19.8625 11.5595 19.5582 13.094C19.2538 14.6286 18.5012 16.0384 17.3955 17.1451C16.2898 18.2518 14.8807 19.0058 13.3464 19.3115C11.8121 19.6172 10.2217 19.461 8.77618 18.8627C7.3307 18.2643 6.09516 17.2507 5.22586 15.95C4.35657 14.6493 3.89257 13.1201 3.89257 11.5556C3.90205 9.46239 4.7373 7.45747 6.21679 5.97663C7.69628 4.49578 9.70044 3.6587 11.7937 3.6473ZM11.7937 2.16675C9.93673 2.16675 8.12149 2.7174 6.57749 3.74906C5.0335 4.78073 3.8301 6.24707 3.11948 7.96266C2.40885 9.67826 2.22292 11.5661 2.58519 13.3873C2.94747 15.2086 3.84167 16.8815 5.15473 18.1946C6.46779 19.5076 8.14073 20.4018 9.962 20.7641C11.7833 21.1264 13.6711 20.9405 15.3867 20.2298C17.1022 19.5192 18.5686 18.3158 19.6003 16.7718C20.6319 15.2278 21.1826 13.4126 21.1826 11.5556C21.1826 9.06555 20.1934 6.67745 18.4326 4.91669C16.6719 3.15593 14.2838 2.16675 11.7937 2.16675Z" fill="#E8503A" fill-opacity="0.8"/>
<path d="M25.278 24.0427L19.9552 18.6838L18.9297 19.7022L24.2525 25.0611C24.3193 25.1284 24.3988 25.1819 24.4863 25.2185C24.5739 25.2552 24.6678 25.2742 24.7627 25.2745C24.8576 25.2749 24.9516 25.2565 25.0394 25.2205C25.1272 25.1845 25.2071 25.1315 25.2744 25.0647C25.3417 24.9978 25.3953 24.9183 25.4319 24.8308C25.4685 24.7432 25.4875 24.6493 25.4879 24.5544C25.4882 24.4596 25.4698 24.3655 25.4338 24.2777C25.3978 24.1899 25.3449 24.1101 25.278 24.0427Z" fill="#E8503A" fill-opacity="0.8"/>
</svg>
