<svg width="29" height="29" viewBox="0 0 29 29" fill="none" xmlns="http://www.w3.org/2000/svg">
<path d="M21.7498 15.7083H15.7082V21.75C15.7082 22.4146 15.1644 22.9583 14.4998 22.9583C13.8353 22.9583 13.2915 22.4146 13.2915 21.75V15.7083H7.24984C6.58525 15.7083 6.0415 15.1646 6.0415 14.5C6.0415 13.8354 6.58525 13.2917 7.24984 13.2917H13.2915V7.24999C13.2915 6.58541 13.8353 6.04166 14.4998 6.04166C15.1644 6.04166 15.7082 6.58541 15.7082 7.24999V13.2917H21.7498C22.4144 13.2917 22.9582 13.8354 22.9582 14.5C22.9582 15.1646 22.4144 15.7083 21.7498 15.7083Z" fill="#353535"/>
</svg>
