<svg width="43" height="54" viewBox="0 0 43 54" fill="none" xmlns="http://www.w3.org/2000/svg">
<path d="M21.0824 0.0058725C24.8361 0.0895481 28.4954 1.19798 31.6646 3.21127C34.8338 5.22456 37.3922 8.06606 39.063 11.4284C40.7339 14.7908 41.4536 18.546 41.1442 22.2878C40.8349 26.0297 39.5084 29.6157 37.3081 32.6581L37.1075 32.929L22.5073 52.727C22.2095 53.1309 21.819 53.4573 21.3687 53.6787C20.9184 53.9001 20.4215 54.01 19.9199 53.9992C19.4182 53.9884 18.9265 53.8571 18.4862 53.6165C18.0458 53.3759 17.6698 53.033 17.3897 52.6166L4.20439 33.0193C1.71584 29.2162 -5.74177e-05 25.2426 -5.74177e-05 20.5565C0.00450538 17.814 0.556887 15.1 1.62467 12.5739C2.69244 10.0478 4.2541 7.76043 6.21796 5.84611C8.18183 3.93178 10.5083 2.42906 13.0609 1.42616C15.6135 0.423255 18.3407 -0.0596202 21.0824 0.0058725ZM20.5907 35.5681C23.653 35.5681 26.6465 34.66 29.1927 32.9587C31.7389 31.2574 33.7234 28.8392 34.8953 26.01C36.0672 23.1808 36.3738 20.0677 35.7764 17.0642C35.179 14.0608 33.7043 11.302 31.539 9.13659C29.3736 6.97122 26.6148 5.4966 23.6113 4.89917C20.6079 4.30175 17.4947 4.60837 14.6655 5.78025C11.8364 6.95214 9.4182 8.93666 7.71689 11.4829C6.01557 14.0291 5.10749 17.0226 5.10749 20.0849C5.10749 24.1913 6.73875 28.1295 9.64242 31.0331C12.5461 33.9368 16.4843 35.5681 20.5907 35.5681Z" fill="#E8503A"/>
<g opacity="0.3">
<path d="M21.0824 0.0058725C24.8361 0.0895481 28.4954 1.19798 31.6646 3.21127C34.8338 5.22456 37.3922 8.06606 39.063 11.4284C40.7339 14.7908 41.4536 18.546 41.1442 22.2878C40.8349 26.0297 39.5084 29.6157 37.3081 32.6581L37.1075 32.929L22.5073 52.727C22.2095 53.1309 21.819 53.4573 21.3687 53.6787C20.9184 53.9001 20.4215 54.01 19.9199 53.9992C19.4182 53.9884 18.9265 53.8571 18.4862 53.6165C18.0458 53.3759 17.6698 53.033 17.3897 52.6166L4.20439 33.0193C1.71584 29.2162 -5.74177e-05 25.2426 -5.74177e-05 20.5565C0.00450538 17.814 0.556887 15.1 1.62467 12.5739C2.69244 10.0478 4.2541 7.76043 6.21796 5.84611C8.18183 3.93178 10.5083 2.42906 13.0609 1.42616C15.6135 0.423255 18.3407 -0.0596202 21.0824 0.0058725ZM20.5907 35.5681C23.653 35.5681 26.6465 34.66 29.1927 32.9587C31.7389 31.2574 33.7234 28.8392 34.8953 26.01C36.0672 23.1808 36.3738 20.0677 35.7764 17.0642C35.179 14.0608 33.7043 11.302 31.539 9.13659C29.3736 6.97122 26.6148 5.4966 23.6113 4.89917C20.6079 4.30175 17.4947 4.60837 14.6655 5.78025C11.8364 6.95214 9.4182 8.93666 7.71689 11.4829C6.01557 14.0291 5.10749 17.0226 5.10749 20.0849C5.10749 24.1913 6.73875 28.1295 9.64242 31.0331C12.5461 33.9368 16.4843 35.5681 20.5907 35.5681Z" fill="black"/>
</g>
<path d="M22.3066 0.0058725C26.0602 0.0895481 29.7196 1.19798 32.8888 3.21127C36.058 5.22456 38.6164 8.06606 40.2872 11.4284C41.958 14.7908 42.6777 18.546 42.3684 22.2878C42.0591 26.0297 40.7326 29.6157 38.5323 32.6581L38.3316 32.929L23.7314 52.727C23.4326 53.1309 23.0412 53.4572 22.5901 53.6786C22.139 53.8999 21.6414 54.0097 21.1391 53.9989C20.6367 53.9881 20.1443 53.8569 19.7032 53.6164C19.262 53.3759 18.885 53.033 18.6038 52.6166L5.42857 33.0193C2.92998 29.2162 1.22412 25.2426 1.22412 20.5565C1.22868 17.814 1.78106 15.1 2.84884 12.5739C3.91662 10.0478 5.47828 7.76043 7.44214 5.84611C9.406 3.93178 11.7325 2.42906 14.285 1.42616C16.8376 0.423255 19.5648 -0.0596202 22.3066 0.0058725ZM21.8149 32.7785C24.1353 32.7805 26.4042 32.0942 28.3346 30.8064C30.265 29.5187 31.77 27.6874 32.6594 25.5441C33.5488 23.4009 33.7825 21.042 33.331 18.7659C32.8795 16.4897 31.7632 14.3987 30.123 12.7572C28.4829 11.1156 26.3928 9.99743 24.1171 9.544C21.8413 9.09057 19.4823 9.32229 17.3382 10.2098C15.1942 11.0974 13.3616 12.6009 12.0722 14.5301C10.7828 16.4594 10.0946 18.7277 10.0946 21.0482C10.0946 24.1575 11.3291 27.1396 13.5268 29.3392C15.7245 31.5388 18.7055 32.7758 21.8149 32.7785Z" fill="#E8503A"/>
</svg>
